<svg width="700" height="700" viewBox="0 0 700 700" fill="none" xmlns="http://www.w3.org/2000/svg">
<rect x="0.5" y="0.5" width="699" height="699" rx="41.5" fill="black" stroke="white"/>
<path d="M182 387.5C186.667 394.5 192 401 198 407C204 413 210.833 417.833 218.5 421.5C226.5 424.833 235.167 426.5 244.5 426.5C255.833 426.5 264.667 424 271 419C277.667 413.667 281 406.5 281 397.5C281 389.5 278.333 382.833 273 377.5C268 371.833 261.5 367.167 253.5 363.5C245.5 359.5 237 355.833 228 352.5C218 348.5 207.833 343.833 197.5 338.5C187.5 332.833 179 325.667 172 317C165.333 308 162 296.833 162 283.5C162 269.833 165.5 258.5 172.5 249.5C179.833 240.5 189.167 233.833 200.5 229.5C212.167 225.167 224.167 223 236.5 223C248.833 223 260.333 225 271 229C282 233 291.667 238.333 300 245C308.333 251.667 314.833 259.333 319.5 268L287.5 288.5C281.167 279.833 273.167 272.667 263.5 267C254.167 261.333 243.5 258.5 231.5 258.5C223.167 258.5 216 260.333 210 264C204 267.667 201 273.333 201 281C201 287 203.333 292.333 208 297C212.667 301.667 218.667 305.833 226 309.5C233.333 313.167 241 316.667 249 320C262.333 325.333 274.5 331.167 285.5 337.5C296.5 343.5 305.167 350.833 311.5 359.5C318.167 368.167 321.5 379.333 321.5 393C321.5 413 314.167 429.667 299.5 443C285.167 456.333 266.167 463 242.5 463C227.167 463 213.333 460.333 201 455C188.667 449.333 178.167 442.167 169.5 433.5C161.167 424.833 154.833 416 150.5 407L182 387.5Z" fill="#C084FC"/>
<path d="M334.219 228H379.219L444.219 390.5L509.219 228H554.219L444.219 475.5L334.219 228Z" fill="white"/>
<path d="M135 520.5H336.5V545.5H135V520.5Z" fill="#C084FC"/>
<rect x="335" y="148" width="220" height="25" fill="white"/>
</svg>
